<mxfile host="app.diagrams.net" modified="2022-06-23T09:13:08.189Z" agent="5.0 (Windows NT 10.0; Win64; x64) AppleWebKit/537.36 (KHTML, like Gecko) Chrome/102.0.0.0 Safari/537.36" etag="vVHiPTG6Z2X7_wdsc0T2" version="20.0.1" type="github">
  <diagram id="vQbmHarcGOKyk270IGDX" name="Data Init Logic">
    <mxGraphModel dx="1422" dy="762" grid="1" gridSize="10" guides="1" tooltips="1" connect="1" arrows="1" fold="1" page="1" pageScale="1" pageWidth="827" pageHeight="1169" math="0" shadow="0">
      <root>
        <mxCell id="0" />
        <mxCell id="1" parent="0" />
        <mxCell id="_8ddzla4QDoaLI6WxMhr-3" value="" style="edgeStyle=orthogonalEdgeStyle;rounded=0;orthogonalLoop=1;jettySize=auto;html=1;" edge="1" parent="1" source="_8ddzla4QDoaLI6WxMhr-1" target="_8ddzla4QDoaLI6WxMhr-2">
          <mxGeometry relative="1" as="geometry" />
        </mxCell>
        <mxCell id="_8ddzla4QDoaLI6WxMhr-1" value="initOTT" style="rounded=1;whiteSpace=wrap;html=1;" vertex="1" parent="1">
          <mxGeometry x="120" y="40" width="120" height="40" as="geometry" />
        </mxCell>
        <mxCell id="_8ddzla4QDoaLI6WxMhr-5" value="" style="edgeStyle=orthogonalEdgeStyle;rounded=0;orthogonalLoop=1;jettySize=auto;html=1;" edge="1" parent="1" source="_8ddzla4QDoaLI6WxMhr-2" target="_8ddzla4QDoaLI6WxMhr-4">
          <mxGeometry relative="1" as="geometry" />
        </mxCell>
        <mxCell id="_8ddzla4QDoaLI6WxMhr-2" value="vuex actions&lt;br&gt;updateChannelsData" style="rounded=1;whiteSpace=wrap;html=1;" vertex="1" parent="1">
          <mxGeometry x="120" y="360" width="120" height="40" as="geometry" />
        </mxCell>
        <mxCell id="_8ddzla4QDoaLI6WxMhr-7" value="" style="edgeStyle=orthogonalEdgeStyle;rounded=0;orthogonalLoop=1;jettySize=auto;html=1;" edge="1" parent="1" source="_8ddzla4QDoaLI6WxMhr-4" target="_8ddzla4QDoaLI6WxMhr-6">
          <mxGeometry relative="1" as="geometry" />
        </mxCell>
        <mxCell id="_8ddzla4QDoaLI6WxMhr-4" value="vuex actions&lt;br&gt;updateCategoryList" style="rounded=1;whiteSpace=wrap;html=1;" vertex="1" parent="1">
          <mxGeometry x="120" y="880" width="120" height="40" as="geometry" />
        </mxCell>
        <mxCell id="_8ddzla4QDoaLI6WxMhr-9" value="" style="edgeStyle=orthogonalEdgeStyle;rounded=0;orthogonalLoop=1;jettySize=auto;html=1;" edge="1" parent="1" source="_8ddzla4QDoaLI6WxMhr-6" target="_8ddzla4QDoaLI6WxMhr-8">
          <mxGeometry relative="1" as="geometry" />
        </mxCell>
        <mxCell id="_8ddzla4QDoaLI6WxMhr-6" value="vuex actions&lt;br&gt;updateAllChannelsList" style="rounded=1;whiteSpace=wrap;html=1;" vertex="1" parent="1">
          <mxGeometry x="120" y="1000" width="120" height="40" as="geometry" />
        </mxCell>
        <mxCell id="_8ddzla4QDoaLI6WxMhr-11" value="" style="edgeStyle=orthogonalEdgeStyle;rounded=0;orthogonalLoop=1;jettySize=auto;html=1;" edge="1" parent="1" source="_8ddzla4QDoaLI6WxMhr-8" target="_8ddzla4QDoaLI6WxMhr-10">
          <mxGeometry relative="1" as="geometry" />
        </mxCell>
        <mxCell id="_8ddzla4QDoaLI6WxMhr-8" value="vuex actions&lt;br&gt;updatePlaybackChannelsList" style="rounded=1;whiteSpace=wrap;html=1;" vertex="1" parent="1">
          <mxGeometry x="80" y="1120" width="200" height="40" as="geometry" />
        </mxCell>
        <mxCell id="_8ddzla4QDoaLI6WxMhr-10" value="vuex mutations&lt;br&gt;setCurrentChannel" style="rounded=1;whiteSpace=wrap;html=1;" vertex="1" parent="1">
          <mxGeometry x="80" y="1240" width="200" height="40" as="geometry" />
        </mxCell>
        <mxCell id="_8ddzla4QDoaLI6WxMhr-18" value="" style="edgeStyle=orthogonalEdgeStyle;rounded=0;orthogonalLoop=1;jettySize=auto;html=1;" edge="1" parent="1" source="_8ddzla4QDoaLI6WxMhr-14" target="_8ddzla4QDoaLI6WxMhr-17">
          <mxGeometry relative="1" as="geometry" />
        </mxCell>
        <mxCell id="_8ddzla4QDoaLI6WxMhr-14" value="DB.theChannelCategory.getAllCategories()" style="rounded=1;whiteSpace=wrap;html=1;" vertex="1" parent="1">
          <mxGeometry x="360" y="160" width="240" height="40" as="geometry" />
        </mxCell>
        <mxCell id="_8ddzla4QDoaLI6WxMhr-23" value="" style="edgeStyle=orthogonalEdgeStyle;rounded=0;orthogonalLoop=1;jettySize=auto;html=1;" edge="1" parent="1" source="_8ddzla4QDoaLI6WxMhr-17" target="_8ddzla4QDoaLI6WxMhr-22">
          <mxGeometry relative="1" as="geometry" />
        </mxCell>
        <mxCell id="_8ddzla4QDoaLI6WxMhr-25" value="" style="edgeStyle=orthogonalEdgeStyle;rounded=0;orthogonalLoop=1;jettySize=auto;html=1;" edge="1" parent="1" source="_8ddzla4QDoaLI6WxMhr-17" target="_8ddzla4QDoaLI6WxMhr-24">
          <mxGeometry relative="1" as="geometry" />
        </mxCell>
        <mxCell id="_8ddzla4QDoaLI6WxMhr-17" value="isDef ?" style="rhombus;whiteSpace=wrap;html=1;rounded=1;" vertex="1" parent="1">
          <mxGeometry x="440" y="240" width="80" height="40" as="geometry" />
        </mxCell>
        <mxCell id="_8ddzla4QDoaLI6WxMhr-30" value="" style="edgeStyle=orthogonalEdgeStyle;rounded=0;orthogonalLoop=1;jettySize=auto;html=1;" edge="1" parent="1" source="_8ddzla4QDoaLI6WxMhr-22" target="_8ddzla4QDoaLI6WxMhr-29">
          <mxGeometry relative="1" as="geometry" />
        </mxCell>
        <mxCell id="_8ddzla4QDoaLI6WxMhr-22" value="commit(&#39;setCategories&#39;)" style="whiteSpace=wrap;html=1;rounded=1;fillColor=#d5e8d4;strokeColor=#82b366;" vertex="1" parent="1">
          <mxGeometry x="400" y="320" width="160" height="40" as="geometry" />
        </mxCell>
        <mxCell id="_8ddzla4QDoaLI6WxMhr-24" value="throw new Error" style="whiteSpace=wrap;html=1;rounded=1;fillColor=#f8cecc;strokeColor=#b85450;" vertex="1" parent="1">
          <mxGeometry x="580" y="240" width="120" height="40" as="geometry" />
        </mxCell>
        <mxCell id="_8ddzla4QDoaLI6WxMhr-32" value="" style="edgeStyle=orthogonalEdgeStyle;rounded=0;orthogonalLoop=1;jettySize=auto;html=1;" edge="1" parent="1" source="_8ddzla4QDoaLI6WxMhr-29" target="_8ddzla4QDoaLI6WxMhr-31">
          <mxGeometry relative="1" as="geometry" />
        </mxCell>
        <mxCell id="_8ddzla4QDoaLI6WxMhr-29" value="读取 localStorage 的&lt;br&gt;current category" style="whiteSpace=wrap;html=1;rounded=1;" vertex="1" parent="1">
          <mxGeometry x="420" y="400" width="120" height="40" as="geometry" />
        </mxCell>
        <mxCell id="_8ddzla4QDoaLI6WxMhr-34" value="" style="edgeStyle=orthogonalEdgeStyle;rounded=0;orthogonalLoop=1;jettySize=auto;html=1;" edge="1" parent="1" source="_8ddzla4QDoaLI6WxMhr-31" target="_8ddzla4QDoaLI6WxMhr-33">
          <mxGeometry relative="1" as="geometry" />
        </mxCell>
        <mxCell id="_8ddzla4QDoaLI6WxMhr-36" value="" style="edgeStyle=orthogonalEdgeStyle;rounded=0;orthogonalLoop=1;jettySize=auto;html=1;" edge="1" parent="1" source="_8ddzla4QDoaLI6WxMhr-31" target="_8ddzla4QDoaLI6WxMhr-35">
          <mxGeometry relative="1" as="geometry" />
        </mxCell>
        <mxCell id="_8ddzla4QDoaLI6WxMhr-31" value="isDef ?" style="rhombus;whiteSpace=wrap;html=1;rounded=1;" vertex="1" parent="1">
          <mxGeometry x="440" y="480" width="80" height="40" as="geometry" />
        </mxCell>
        <mxCell id="_8ddzla4QDoaLI6WxMhr-33" value="commit(&#39;switchCategory&#39;)" style="whiteSpace=wrap;html=1;rounded=1;fillColor=#d5e8d4;strokeColor=#82b366;" vertex="1" parent="1">
          <mxGeometry x="405" y="560" width="150" height="40" as="geometry" />
        </mxCell>
        <mxCell id="_8ddzla4QDoaLI6WxMhr-35" value="throw new Error" style="whiteSpace=wrap;html=1;rounded=1;fillColor=#f8cecc;strokeColor=#b85450;" vertex="1" parent="1">
          <mxGeometry x="580" y="480" width="120" height="40" as="geometry" />
        </mxCell>
        <object c4Name="updateChannelsData" c4Type="" c4Application="vuex actions" label="&lt;font style=&quot;font-size: 16px&quot;&gt;&lt;b&gt;&lt;div style=&quot;text-align: left&quot;&gt;%c4Name%&lt;/div&gt;&lt;/b&gt;&lt;/font&gt;&lt;div style=&quot;text-align: left&quot;&gt;[%c4Application%]&lt;/div&gt;" placeholders="1" id="_8ddzla4QDoaLI6WxMhr-37">
          <mxCell style="rounded=1;fontSize=11;whiteSpace=wrap;html=1;dashed=1;arcSize=20;fillColor=none;strokeColor=#666666;fontColor=#333333;labelBackgroundColor=none;align=left;verticalAlign=bottom;labelBorderColor=none;spacingTop=0;spacing=10;dashPattern=8 4;metaEdit=1;rotatable=0;perimeter=rectanglePerimeter;noLabel=0;labelPadding=0;allowArrows=0;connectable=0;expand=0;recursiveResize=0;editable=1;pointerEvents=0;absoluteArcSize=1;points=[[0.25,0,0],[0.5,0,0],[0.75,0,0],[1,0.25,0],[1,0.5,0],[1,0.75,0],[0.75,1,0],[0.5,1,0],[0.25,1,0],[0,0.75,0],[0,0.5,0],[0,0.25,0]];" vertex="1" parent="1">
            <mxGeometry x="280" y="120" width="440" height="560" as="geometry" />
          </mxCell>
        </object>
      </root>
    </mxGraphModel>
  </diagram>
</mxfile>
